<svg xmlns="http://www.w3.org/2000/svg"  viewBox="0 0 24 24" width="48px" height="48px"><path d="M 7 3 C 4.803 3 3 4.803 3 7 L 3 17 C 3 19.197 4.803 21 7 21 L 17 21 C 19.197 21 21 19.197 21 17 L 21 7 C 21 4.803 19.197 3 17 3 L 7 3 z M 7 5 L 17 5 C 18.117 5 19 5.883 19 7 L 19 17 C 19 18.117 18.117 19 17 19 L 7 19 C 5.883 19 5 18.117 5 17 L 5 7 C 5 5.883 5.883 5 7 5 z M 15.992188 6.28125 C 15.914996 6.2820566 15.836813 6.2907969 15.757812 6.3105469 L 9.7578125 7.8105469 C 9.3128125 7.9215469 9 8.32225 9 8.78125 L 9 14 L 8 14 C 7 14 6 14.97 6 16 C 6 17.04 7.12 18 8.5 18 C 9.88 18 11 17.159141 11 16.119141 C 11 16.079141 11.000234 16.04 10.990234 16 L 11 16 L 11 10.5 L 15 9.5 L 15 13 L 14 13 C 13 13 12 13.97 12 15 C 12 16.04 13.12 17 14.5 17 C 15.88 17 17 16.159141 17 15.119141 C 17 15.079141 17.000234 15.04 16.990234 15 L 17 15 L 17 7.28125 C 17 6.711625 16.532527 6.2756035 15.992188 6.28125 z"/></svg>