<?xml version="1.0"?><svg xmlns="http://www.w3.org/2000/svg" viewBox="0 0 24 24" width="48px" height="48px"><path d="M 12.011719 2 C 6.5057187 2 2.0234844 6.478375 2.0214844 11.984375 C 2.0204844 13.744375 2.4814687 15.462563 3.3554688 16.976562 L 2 22 L 7.2324219 20.763672 C 8.6914219 21.559672 10.333859 21.977 12.007812 21.978 L 12.011719 21.978 C 17.514719 21.978 21.995922 17.498875 21.998047 11.992188 C 21.999047 9.3231875 20.962172 6.8145938 19.076172 4.9265938 C 17.190172 3.0405938 14.683719 2.001 12.011719 2 z M 12.009766 4 C 14.145766 4.001 16.153109 4.8337969 17.662109 6.3417969 C 19.171109 7.8517969 20.000047 9.8571875 19.998047 11.990234 C 19.996047 16.396234 16.412 19.978 12.007812 19.978 C 10.674812 19.977 9.3544062 19.6414 8.1914062 19.0059 L 7.5175781 18.638672 L 6.7734375 18.814453 L 4.8046875 19.28125 L 5.28125 17.517578 L 5.4863281 16.759766 L 5.0644531 16.099609 C 4.3659531 14.989609 3.9979844 13.998234 3.9980469 11.984375 C 4.0000469 7.579375 7.5787656 4 12.009766 4 z M 8.4765625 7.375 C 8.3005625 7.375 8.0166094 7.4412031 7.7746094 7.7042031 C 7.5316094 7.9682031 6.8476562 8.6089219 6.8476562 9.9199219 C 6.8476562 11.230922 7.7972656 12.498469 7.9472656 12.683594 C 8.0982656 12.868594 9.8020625 15.588 12.464844 16.755 C 14.677844 17.727 15.187 17.526 15.618 17.484 C 16.048 17.442 16.940828 16.949828 17.130828 16.436828 C 17.318828 15.923828 17.318844 15.483359 17.261719 15.390625 C 17.203719 15.298625 17.055078 15.242813 16.833078 15.132812 C 16.611078 15.021813 15.522078 14.485891 15.318078 14.411891 C 15.114078 14.337891 14.966 14.301 14.818 14.523 C 14.670 14.744 14.245719 15.242813 14.116719 15.390625 C 13.987719 15.539625 13.858 15.558 13.636 15.447 C 13.414 15.336 12.700656 15.102203 11.855469 14.347656 C 11.197469 13.760656 10.75225 13.036812 10.62225 12.814812 C 10.49325 12.593812 10.608968 12.472922 10.719969 12.362922 C 10.819969 12.263922 10.942 12.104 11.053 11.975 C 11.163 11.845 11.199906 11.752906 11.273906 11.604906 C 11.347906 11.455906 11.310922 11.326 11.255922 11.216 C 11.200922 11.106 10.769234 10.010109 10.578234 9.5691094 C 10.417234 9.1961094 10.247047 9.194 10.106047 9.187 C 9.9910469 9.183 9.8437656 9.1855 9.6957656 9.1855 z"/></svg>
